<svg xmlns="http://www.w3.org/2000/svg" width="32" height="32" viewBox="0 0 32 32">
  <path fill="#0D7377" d="M13 2h6c1.5 0 2.5 1 2.5 2.2v.6c0 1-.7 1.8-1.5 2.2.8.3 1.5 1.2 1.5 2.2v.6c0 1-.7 1.8-1.5 2.2.8.3 1.5 1.2 1.5 2.2v.6c0 1-.7 1.8-1.5 2.2.8.3 1.5 1.2 1.5 2.2v.6c0 1-.7 1.8-1.5 2.2.8.3 1.5 1.2 1.5 2.2v.6c0 1.2-1 2.2-2.5 2.2h-6c-1.5 0-2.5-1-2.5-2.2v-.6c0-1 .7-1.9 1.5-2.2-.8-.4-1.5-1.2-1.5-2.2v-.6c0-1 .7-1.9 1.5-2.2-.8-.4-1.5-1.2-1.5-2.2v-.6c0-1 .7-1.9 1.5-2.2-.8-.4-1.5-1.2-1.5-2.2v-.6c0-1 .7-1.9 1.5-2.2-.8-.4-1.5-1.2-1.5-2.2v-.6C10.5 3 11.5 2 13 2z"/>
  <rect fill="white" x="14" y="4" width="4" height="1.5" rx=".5"/>
  <rect fill="white" x="13.5" y="8.5" width="5" height="1.5" rx=".5"/>
  <rect fill="white" x="14" y="13" width="4" height="1.5" rx=".5"/>
  <rect fill="white" x="13.5" y="17.5" width="5" height="1.5" rx=".5"/>
  <rect fill="white" x="14" y="22" width="4" height="1.5" rx=".5"/>
  <rect fill="white" x="13.5" y="26.5" width="5" height="1.5" rx=".5"/>
</svg>
